<?xml version="1.0" encoding="iso-8859-1"?>
<!-- Generator: Adobe Illustrator 19.0.0, SVG Export Plug-In . SVG Version: 6.00 Build 0)  -->
<svg version="1.1" id="Capa_1" xmlns="http://www.w3.org/2000/svg" xmlns:xlink="http://www.w3.org/1999/xlink" x="0px" y="0px"
	 viewBox="0 0 480 480" style="enable-background:new 0 0 480 480;" xml:space="preserve">
<g>
	<g>
		<g>
			<polygon points="280,416 264,416 264,432 104,432 104,416 88,416 88,448 280,448 			"/>
			<path d="M408,7.312c-0.358-4.148-3.837-7.327-8-7.312H80c-4.163-0.015-7.642,3.164-8,7.312L40,376v96c0,4.418,3.582,8,8,8h384
				c4.418,0,8-3.582,8-8v-96.688L408,7.312z M424,464H56v-64h368V464z M424,384H56v-7.312L87.336,16h305.328L424,376V384z"/>
			<rect x="368" y="424" width="32" height="16"/>
			<rect x="328" y="424" width="32" height="16"/>
		</g>
	</g>
</g>
<g>
</g>
<g>
</g>
<g>
</g>
<g>
</g>
<g>
</g>
<g>
</g>
<g>
</g>
<g>
</g>
<g>
</g>
<g>
</g>
<g>
</g>
<g>
</g>
<g>
</g>
<g>
</g>
<g>
</g>
</svg>
