<svg id="Capa_1" enable-background="new 0 0 512.002 512.002" height="512" viewBox="0 0 512.002 512.002" width="512" xmlns="http://www.w3.org/2000/svg"><g><path d="m74.221 371.151h363.561c7.583 0 13.753-6.17 13.753-13.754 0-7.864 0-243.363 0-256.103 0-7.584-6.17-13.754-13.753-13.754-4.567 0-356.432 0-363.561 0-7.584 0-13.754 6.17-13.754 13.754 0 17.101.001 248.991.001 256.103 0 7.584 6.17 13.754 13.753 13.754zm41.897-268.61h320.416v22.088h-320.416zm320.416 37.088v216.522h-361.066v-216.522zm-361.067-37.088h25.651v22.088h-25.651z"/><path d="m498.683 387.181h-25.644c6.131-7.405 9.809-16.846 9.809-26.916v-95.316c0-4.143-3.357-7.5-7.5-7.5s-7.5 3.357-7.5 7.5v95.316c0 13.106-9.631 24.579-22.494 26.916-11.075 0-361.341 0-378.705 0-12.863-2.337-22.493-13.809-22.493-26.916v-261.447c0-15.084 12.271-27.355 27.355-27.355h368.981c15.084 0 27.355 12.271 27.355 27.355v131.13c0 4.143 3.357 7.5 7.5 7.5s7.5-3.357 7.5-7.5v-131.13c0-23.354-19.001-42.355-42.355-42.355h-368.981c-23.354 0-42.355 19.001-42.355 42.355v261.446c0 10.07 3.677 19.511 9.808 26.916h-25.645c-7.344.001-13.319 6.002-13.319 13.378v20.213c0 19.172 15.479 34.769 34.505 34.769h442.992c19.026 0 34.505-15.597 34.505-34.769v-20.213c0-7.376-5.975-13.377-13.319-13.377zm-1.681 33.59c0 10.9-8.75 19.769-19.505 19.769h-442.992c-10.755-.001-19.505-8.869-19.505-19.769v-18.59h161.008v6.062c0 10.817 8.748 19.618 19.501 19.618h42.991c4.143 0 7.5-3.357 7.5-7.5s-3.357-7.5-7.5-7.5h-42.991c-2.439 0-4.501-2.115-4.501-4.618v-6.062h129.986v6.062c0 2.503-2.062 4.618-4.501 4.618h-42.993c-4.143 0-7.5 3.357-7.5 7.5s3.357 7.5 7.5 7.5h42.993c10.753 0 19.501-8.801 19.501-19.618v-6.062h161.008z"/><path d="m101.373 326.484h100.75c4.143 0 7.5-3.357 7.5-7.5s-3.357-7.5-7.5-7.5h-.005v-128.198c0-7.714-6.276-13.99-13.99-13.99h-73.019c-7.715 0-13.991 6.276-13.991 13.99v128.211c-4.023.135-7.245 3.431-7.245 7.487 0 4.143 3.357 7.5 7.5 7.5zm57.564-15h-14.637v-13.953h14.637zm-42.819-127.188h71v127.188h-13.182v-19.216c0-5.369-4.368-9.737-9.736-9.737h-25.163c-5.369 0-9.737 4.368-9.737 9.737v19.216h-13.182z"/><path d="m134.95 269.453h33.336c4.143 0 7.5-3.357 7.5-7.5s-3.357-7.5-7.5-7.5h-33.336c-4.143 0-7.5 3.357-7.5 7.5s3.358 7.5 7.5 7.5z"/><path d="m134.95 241.95h33.336c4.143 0 7.5-3.357 7.5-7.5s-3.357-7.5-7.5-7.5h-33.336c-4.143 0-7.5 3.357-7.5 7.5s3.358 7.5 7.5 7.5z"/><path d="m134.95 214.448h33.336c4.143 0 7.5-3.357 7.5-7.5s-3.357-7.5-7.5-7.5h-33.336c-4.143 0-7.5 3.357-7.5 7.5s3.358 7.5 7.5 7.5z"/><path d="m241.123 326.484h163.25c4.143 0 7.5-3.357 7.5-7.5s-3.357-7.5-7.5-7.5h-.037v-123.465c0-5.369-4.368-9.737-9.736-9.737h-25.163c-5.369 0-9.737 4.368-9.737 9.737v123.466h-14.637v-95.964c0-5.368-4.368-9.736-9.736-9.736h-25.163c-5.369 0-9.737 4.368-9.737 9.736v95.964h-14.637v-68.462c0-5.368-4.368-9.736-9.736-9.736h-25.164c-5.369 0-9.737 4.368-9.737 9.736v68.462h-.029c-4.143 0-7.5 3.357-7.5 7.5s3.356 7.499 7.499 7.499zm133.576-133.203h14.637v118.203h-14.637zm-59.273 27.503h14.637v90.7h-14.637zm-59.274 27.502h14.637v63.198h-14.637z"/></g></svg>