<?xml version="1.0" encoding="utf-8"?>
<svg viewBox="15.753 3.5 59.51 96.267" xmlns="http://www.w3.org/2000/svg">
  <rect x="42.423" y="16.92" width="3.5" height="28.004" style="" rx="3.5" ry="3.5"/>
  <g transform="matrix(0.653376, 0, 0, 0.571429, -120.580154, -49.635685)">
    <rect x="287.308" y="63.17" width="4.668" height="15.169" style="fill: rgba(0, 0, 0, 0); stroke: rgb(0, 0, 0);" rx="2.625" ry="2.625" transform="matrix(0, 1, -1, 0, 340.019226, -179.310471)"/>
    <rect x="61.815" y="33.821" width="5.25" height="8.168" style="" rx="6.418" ry="6.418" transform="matrix(0, 1, -1, 0, 310.806366, 46.018768)"/>
  </g>
  <g transform="matrix(0, 0.246604, -0.141736, 0, 166.429825, -31.549204)" style="">
    <path style="stroke: rgb(0, 0, 0); fill: rgb(255, 255, 255); stroke-width: 4.73702px;" d="M 179.406 805.238 L 161.202 813.907 L 193.059 829.077 L 211.265 820.408 L 179.406 805.238 Z"/>
    <path style="stroke: rgb(0, 0, 0); fill: rgb(255, 255, 255); stroke-width: 4.73702px;" d="M 193.059 915.762 L 193.059 829.075 L 161.202 813.907 L 161.202 900.592 L 193.059 915.762 Z"/>
    <path style="stroke: rgb(0, 0, 0); fill: rgb(255, 255, 255); stroke-width: 4.73702px;" d="M 193.059 915.762 L 193.059 829.075 L 211.263 820.407 L 211.263 907.093 L 193.059 915.762 Z"/>
  </g>
  <rect x="422.348" y="92.727" width="3.441" height="11.669" style="" rx="3.5" ry="3.5" transform="matrix(1, 0, 0.300012, 1, -387.903625, -8.079943)"/>
  <rect x="376.664" y="89.749" width="3.577" height="11.669" style="" rx="3.5" transform="matrix(1, 0, -0.289481, 1, -326.849609, -4.854281)"/>
  <line style="stroke: rgb(0, 0, 0);" x1="20.42" y1="95.683" x2="68.435" y2="95.683"/>
  <rect x="43.007" y="84.496" width="3.5" height="12.253" style="" rx="4.084" ry="4.084"/>
  <line style="stroke: rgb(0, 0, 0);" x1="43.973" y1="43.239" x2="24.621" y2="86.413"/>
  <line style="stroke: rgb(0, 0, 0);" x1="44.341" y1="42.655" x2="44.924" y2="86.413"/>
  <line style="stroke: rgb(0, 0, 0);" x1="44.341" y1="43.239" x2="64.177" y2="85.829"/>
</svg>