<?xml version="1.0" encoding="utf-8"?>
<svg version="1.1" x="0px" y="0px" viewBox="1.083 0.618 27.754 23.67" style="enable-background:new 0 0 100 100;" xmlns="http://www.w3.org/2000/svg" xmlns:bx="https://boxy-svg.com">
  <defs>
    <linearGradient gradientUnits="userSpaceOnUse" x1="47.026" y1="5.274" x2="47.026" y2="95.317" id="gradient-0">
      <stop offset="0" style="stop-color: rgba(6, 60, 20, 1)"/>
      <stop offset="1" style="stop-color: rgba(0, 0, 0, 1)"/>
    </linearGradient>
    <linearGradient gradientUnits="userSpaceOnUse" x1="54.591" y1="18.139" x2="54.591" y2="74.736" id="gradient-1">
      <stop offset="0" style="stop-color: rgba(6, 60, 20, 1)"/>
      <stop offset="1" style="stop-color: rgba(0, 0, 0, 1)"/>
    </linearGradient>
    <linearGradient gradientUnits="userSpaceOnUse" x1="55.904" y1="20.456" x2="55.904" y2="64.663" id="gradient-2">
      <stop offset="0" style="stop-color: rgba(6, 60, 20, 1)"/>
      <stop offset="1" style="stop-color: rgba(0, 0, 0, 1)"/>
    </linearGradient>
    <linearGradient gradientUnits="userSpaceOnUse" x1="54.367" y1="24.157" x2="54.367" y2="58.179" id="gradient-3">
      <stop offset="0" style="stop-color: rgba(6, 60, 20, 1)"/>
      <stop offset="1" style="stop-color: rgba(0, 0, 0, 1)"/>
    </linearGradient>
    <linearGradient gradientUnits="userSpaceOnUse" x1="74.396" y1="15.334" x2="74.396" y2="18.793" id="gradient-4">
      <stop offset="0" style="stop-color: rgba(6, 60, 20, 1)"/>
      <stop offset="1" style="stop-color: rgba(0, 0, 0, 1)"/>
    </linearGradient>
    <linearGradient gradientUnits="userSpaceOnUse" x1="47.026" y1="5.274" x2="47.026" y2="95.317" id="gradient-5" spreadMethod="reflect">
      <stop offset="0" style="stop-color: rgba(52, 180, 58, 1)"/>
      <stop offset="1" style="stop-color: rgba(29, 101, 33, 1)"/>
    </linearGradient>
    <linearGradient gradientUnits="userSpaceOnUse" x1="54.591" y1="18.139" x2="54.591" y2="74.736" id="gradient-6" spreadMethod="reflect">
      <stop offset="0" style="stop-color: rgba(52, 180, 58, 1)"/>
      <stop offset="1" style="stop-color: rgba(29, 101, 33, 1)"/>
    </linearGradient>
    <linearGradient gradientUnits="userSpaceOnUse" x1="55.904" y1="20.456" x2="55.904" y2="64.663" id="gradient-7" spreadMethod="reflect">
      <stop offset="0" style="stop-color: rgba(52, 180, 58, 1)"/>
      <stop offset="1" style="stop-color: rgba(29, 101, 33, 1)"/>
    </linearGradient>
    <linearGradient gradientUnits="userSpaceOnUse" x1="54.367" y1="24.157" x2="54.367" y2="58.179" id="gradient-8" spreadMethod="reflect">
      <stop offset="0" style="stop-color: rgba(52, 180, 58, 1)"/>
      <stop offset="1" style="stop-color: rgba(29, 101, 33, 1)"/>
    </linearGradient>
    <linearGradient gradientUnits="userSpaceOnUse" x1="74.396" y1="15.334" x2="74.396" y2="18.793" id="gradient-9" spreadMethod="reflect">
      <stop offset="0" style="stop-color: rgba(52, 180, 58, 1)"/>
      <stop offset="1" style="stop-color: rgba(29, 101, 33, 1)"/>
    </linearGradient>
    <filter id="motion-blur-filter-0" color-interpolation-filters="sRGB" x="-500%" y="-500%" width="1000%" height="1000%" bx:preset="motion-blur 1 5 horizontal">
      <feGaussianBlur stdDeviation="5 0" edgeMode="none"/>
    </filter>
  </defs>
  <circle style="filter: url(#motion-blur-filter-0); fill: rgb(221, 255, 203);" cx="39.603" cy="16.743" r="13.356" transform="matrix(0.7648, 0, 0, 0.808425, -15.747244, -0.897653)"/>
  <g style="" transform="matrix(0.207825, 0, 0, 0.149546, 4.533323, 5.103905)">
    <g>
      <path d="M55.74269,18.27419c0.56972,0.09091,0.97559,0.01029,1.35328-0.13707c1.32736-0.51787,2.76139-0.77574,3.96191-1.60373     c0.30859-0.21284,0.61475-0.4322,0.90153-0.67298c0.49657-0.41685,0.98454-0.83273,1.57439-1.12904     c0.55116-0.27687,1.00278-0.6776,1.3594-1.21253c1.24625-1.86935,3.02074-3.16573,4.98388-4.1382     c1.84063-0.91179,3.85638-0.98179,5.89696-0.72314c1.44,0.18253,2.81464,0.60282,4.15392,1.08691     c0.9146,0.33061,1.66977,1.05164,2.28571,1.84255c0.27862,0.35778,0.41914,0.80794,0.39745,1.25524     c-0.05644,1.16473-0.21741,2.28794-0.93716,3.29506c-0.61568,0.86155-1.10129,1.83376-1.93873,2.50093     c-1.05178,0.83798-2.06487,1.75893-3.42481,2.11763c-0.35989,0.09492-0.70309,0.26565-1.04137,0.42783     c-2.04733,0.98142-4.2061,1.53058-6.46351,1.74438c-1.13826,0.10781-2.18255,0.51681-3.14239,1.15386     c-0.96291,0.63912-1.96211,1.22376-2.92186,1.86739c-0.81822,0.5487-1.07005,1.60114-0.49838,2.39831     c0.85416,1.19111,1.611,2.4513,2.59488,3.55563c0.45664,0.51255,0.92512,0.6579,1.53296,0.51901     c1.23067-0.28121,2.46135-0.56416,3.68408-0.87741c0.7541-0.1932,1.50132-0.42106,2.23768-0.67395     c1.01528-0.34868,1.15738-0.57268,1.13807-1.65969c-0.00909-0.51178-0.0554-1.02282-0.06721-1.53461     c-0.0135-0.58577-0.1068-1.11236-0.43284-1.64828c-0.54534-0.89637,0.0546-2.05835,1.0676-2.30834     c0.24064-0.05939,0.36799-0.03041,0.51333,0.16257c0.20738,0.27534,0.44531,0.53642,0.48943,0.88861     c0.14762,1.17895,0.6155,2.30023,0.4918,3.53555c-0.08684,0.86731,0.58347,1.36127,1.4876,1.22785     c1.05833-0.15616,2.03767-0.554,2.98626-1.03808c1.09225-0.55737,2.14727-1.18292,3.37112-1.46472     c0.5508-0.12682,0.9501-0.03655,1.27755,0.36305c0.32987,0.40256,0.2008,0.8443-0.02985,1.24848     c-0.3348,0.5866-0.84442,0.98184-1.46774,1.22161c-1.55874,0.59952-3.12951,1.15986-4.80344,1.35293     c-0.10107,0.01166-0.20029,0.04242-0.29935,0.06821c-1.11169,0.28965-1.18055,0.50828-0.46274,1.39305     c0.51686,0.63708,1.02834,1.27893,1.52536,1.93153c0.51902,0.68151,0.73542,1.45321,0.59356,2.30706     c-0.11658,0.70164-0.45538,0.97505-1.36996,1.13383c-0.75104,0.13043-1.02752,0.04388-1.36375-0.58363     c-0.43185-0.80606-0.97688-1.54721-1.24716-2.44886c-0.25513-0.85109-0.91872-1.27192-1.80953-1.21086     c-0.60409,0.04142-1.19136,0.13928-1.76524,0.45116c-1.014,0.55106-2.10404,0.96053-3.15106,1.45305     c-0.82814,0.38956-1.60616,0.85352-2.52615,1.07049c-1.52522,0.35972-2.94092,0.33073-4.36676-0.42372     c-0.68051-0.36007-1.25386-0.76157-1.76252-1.33462c-0.77053-0.86809-1.59441-1.69233-2.43564-2.49323     c-0.913-0.86923-2.48986-0.78165-3.448,0.01287c-1.30485,1.082-1.67667,2.49347-1.69548,4.08403     c-0.00523,0.44224-0.0447,0.88546-0.09298,1.32555c-0.13226,1.20522,0.063,2.37285,0.33003,3.54342     c0.17423,0.76379,0.25609,1.54887,0.37341,2.32531c0.04515,0.29885-0.00436,0.62838,0.30534,0.83385     c0.24763-0.05534,0.283-0.28363,0.32872-0.46696c0.45504-1.82547,1.65413-3.05937,3.09764-4.17997     c1.35471-1.05167,2.9317-0.5279,3.8115,0.54195c0.63235,0.76898,1.16188,1.58136,1.14978,2.66136     c-0.00869,0.77823,0.23997,1.55415,0.03122,2.34135c-0.06905,0.26033-0.00301,0.43833,0.31524,0.5204     c0.90709,0.23388,1.32616,0.9564,1.52197,1.77491c0.25195,1.0534,0.79231,1.96329,1.28716,2.89477     c0.44818,0.84363,0.9302,0.84402,1.51539,0.05312c0.16068-0.21717,0.2949-0.46498,0.38949-0.71809     c0.46568-1.24594,1.20032-2.38068,1.47168-3.71095c0.1156-0.56656,0.44803-1.0661,0.81184-1.53252     c0.306-0.39228,0.71326-0.5182,1.16896-0.51737c0.62983,0.00112,0.91719,0.29473,1.0084,0.92469     c0.10377,0.71665-0.23217,1.33571-0.43078,1.97905c-0.40332,1.30638-0.94176,2.5497-1.73893,3.68113     c-0.316,0.44849-0.63933,0.88398-0.99091,1.30337c-0.30711,0.36632-0.62858,0.73005-0.87231,1.13762     c-0.29458,0.49255-0.14304,0.76073,0.43945,0.81526c1.08494,0.10153,2.17283,0.08614,3.23717,0.44156     c0.67799,0.22641,1.20441,0.64275,1.75602,1.03151c0.43925,0.30957,0.46055,0.77335,0.19656,1.3878     c-0.27812,0.6474-0.92441,1.14392-1.51718,0.97233c-1.17022-0.33875-2.43682-0.22929-3.54749-0.8611     c-0.8633-0.49109-1.81226-0.37948-2.67127,0.034c-0.82665,0.39793-1.6646,0.80538-2.36314,1.42526     c-0.54031,0.47945-1.25079,0.67487-1.83711,1.09182c0.11077,0.59632,0.35702,1.12391,0.62377,1.63205     c0.71395,1.36,1.29307,2.78135,1.94993,4.16692c0.23733,0.5006,0.38548,1.02715,0.50823,1.55677     c0.14816,0.63935,0.40559,1.21039,0.73995,1.7746c0.71479,1.20613,0.95094,2.50294,0.8172,3.92567     c-0.16109,1.71365-0.53416,3.37254-0.94676,5.03102c-0.19935,0.80132-0.57039,1.55003-0.97534,2.24105     c-0.68755,1.17335-1.26995,2.40745-2.11139,3.50046c-1.97525,2.56586-4.25839,4.79379-6.91358,6.64405     c-1.22292,0.85219-2.50554,1.55239-3.88512,2.16199c-1.44352,0.6378-2.90778,1.16936-4.41209,1.55265     c-1.70762,0.43507-3.41089,0.91109-5.19962,1.03898c-1.3842,0.09895-2.77521,0.13879-4.16354,0.30802     c-1.53115,0.18666-3.14573,0.10491-4.66627-0.17415c-1.13753-0.20876-2.20927-0.85983-3.25029-1.44469     c-2.45913-1.38158-4.61092-3.14963-6.57748-5.16252c-1.69463-1.73456-3.46329-3.39847-5.12013-5.16768     c-0.9042-0.96552-1.77772-1.97755-2.46229-3.13356c-0.31081-0.52488-0.64304-1.04189-1.0337-1.52434     c-0.3987-0.49237-0.70917-1.04095-0.88012-1.69297c-0.24985-0.95302-0.72985-1.84069-1.1256-2.7404     c-0.65156-1.48125-0.90784-3.06767-1.4617-4.56997c-0.45711-1.23991-0.74316-2.5413-1.22046-3.78066     c-0.13258-0.34428-0.15122-0.73425-0.20663-1.10556c-0.02146-0.14387,0.04868-0.27272,0.19681-0.31807     c0.13696-0.04193,0.26321-0.00903,0.36524,0.10799c0.48636,0.55787,0.70535,1.2447,0.90042,1.93288     c0.32477,1.14577,0.55112,2.32279,0.93073,3.44897c0.89674,2.66022,2.40141,4.97464,4.33849,6.98325     c0.83405,0.86485,1.49665,1.8613,2.33923,2.71365c1.42374,1.44025,3.02838,2.65857,4.59202,3.93407     c1.40411,1.14536,2.91435,2.12567,4.46323,3.02558c1.95736,1.13725,4.07532,1.82425,6.38267,2.05095     c1.54758,0.15205,3.0549,0.02721,4.58217,0.03098c2.35673,0.00581,4.60559-0.55858,6.87008-1.01887     c1.04765-0.21293,2.05141-0.75468,2.98682-1.32253c1.13393-0.68834,2.20803-1.46286,3.17792-2.38135     c1.36601-1.29366,2.7048-2.57455,3.36594-4.42912c0.28303-0.79388,0.66098-1.5592,0.93652-2.36855     c0.2945-0.86518,0.40015-1.75317,0.28936-2.61658c-0.19955-1.5549-0.36335-3.1272-0.8054-4.63885     c-0.40196-1.37453-0.87882-2.73987-1.59466-3.97846c-0.84032-1.45399-1.85824-2.73808-3.52226-3.42758     c-1.40628-0.58269-2.85514-1.09961-4.0914-2.07402c-0.92471-0.72886-1.78533-1.51504-2.43688-2.46797     c-0.45523-0.6658-1.01628-1.20274-1.58179-1.73169c-0.86478-0.80885-2.86832-0.63327-3.69346,0.24054     c-0.76841,0.81377-1.09114,1.72128-0.95208,2.88766c0.2099,1.76054,0.20813,3.55058-0.11739,5.30033     c-0.20219,1.08677-1.00334,1.84587-1.91051,2.41252c-1.24335,0.77665-2.543,1.46262-3.80198,2.21511     c-0.37813,0.22601-0.73026,0.5151-1.04277,0.82693c-0.50779,0.50672-0.7689,1.10033-0.59136,1.85937     c0.22548,0.96404,0.29658,1.95374,0.40043,2.93842c0.09127,0.86514-0.38617,1.45309-0.92499,1.95631     c-0.35242,0.32917-0.97567,0.30269-1.35811,0.05055c-0.51222-0.33769-0.86191-0.89102-0.76283-1.57493     c0.07793-0.53792,0.18178-1.07465,0.28018-1.60714c0.18428-0.99723,0.12057-1.97124-0.02306-2.95349     c-0.12116-0.8285-0.53051-1.05935-1.26319-0.64066c-0.80635,0.46079-1.65934,0.80865-2.50933,1.16562     c-0.89059,0.37405-1.82096,0.57742-2.79623,0.53457c-0.99036-0.0435-1.56139-0.75133-1.20541-1.65241     c0.21478-0.54369,0.54611-1.06785,1.28808-1.17806c0.91226-0.1355,1.83682-0.11102,2.74559-0.31087     c0.75936-0.16696,1.39335-0.55116,2.02929-0.94075c0.47399-0.29037,0.35705-0.79182,0.22753-1.2019     c-0.19636-0.62168-0.51233-1.23515-0.98618-1.65937c-0.53682-0.48061-0.99618-1.03119-1.52898-1.50667     c-0.7788-0.69502-1.29836-1.5741-1.81004-2.45478c-0.45476-0.7827-0.21604-1.93044,0.46045-2.53221     c0.3754-0.33394,1.25036-0.41793,1.62114-0.07753c0.60822,0.55838,1.18567,1.16454,1.0439,2.10672     c-0.09439,0.62717,0.17686,1.08526,0.55463,1.57693c0.67742,0.88168,1.50573,1.58189,2.37376,2.24336     c0.83249,0.63438,1.42177,0.6283,2.34062,0.04761c0.51993-0.32859,1.04585-0.6513,1.54046-1.01551     c0.76869-0.56604,0.85984-0.95137,0.55601-1.85413c-0.47997-1.42616-0.74428-2.90838-0.94886-4.38778     c-0.14304-1.03449-0.29862-2.06949-0.31696-3.13994c-0.03283-1.91462,0.5497-3.62927,1.16963-5.36092     c0.3375-0.94275,0.96853-1.72011,1.59121-2.49143c0.19495-0.2415,0.45471-0.35454,0.75459-0.47264     c1.08738-0.42822,2.20932-0.63756,3.45825-0.66852c-0.23996-0.71597-0.43506-1.36118-0.67135-1.99093     c-0.65075-1.73428-0.73663-3.53329-0.63123-5.35263c0.19576-3.37904,1.09156-6.56267,2.62815-9.58144     c0.37429-0.73536,0.71886-1.47358,1.2796-2.0833c2.09094-2.27356,4.61076-3.92373,7.47734-5.03863     c0.41602-0.16179,0.78421-0.32169,0.90494-0.7346c0.315-1.07766,0.99739-2.00539,1.2118-3.13111     c0.06506-0.34166,0.0596-0.57663-0.11519-0.84621c-0.88887-1.37086-2.2926-1.42687-3.73285-0.91932     c-0.96368,0.33964-1.51519,1.12087-1.93074,1.98718c-0.27487,0.57306-0.66251,1.03467-1.11323,1.45594     c-0.34146,0.31915-1.34046,0.41645-1.72768,0.19386c-0.35119-0.20186-0.5572-0.84699-0.4537-1.37967     c0.24995-1.28656,0.98665-2.24438,2.07312-2.91459c0.44672-0.27558,0.78836-0.65094,1.18068-0.9737     c0.43376-0.35685,0.3778-0.61741-0.08715-0.99339c-0.69241-0.55992-1.54194-0.75015-2.37445-0.90372     c-1.39272-0.2569-2.35689-0.99807-2.97989-2.25141c-0.23196-0.46667-0.32211-0.88395,0.00612-1.34167     c0.32915-0.459,0.73842-0.3532,1.19476-0.27255c1.14343,0.20211,2.11654,0.76752,3.07955,1.362     c0.76132,0.46999,1.53759,0.8739,2.44331,1.02093c0.5,0.08118,0.68865-0.08371,0.77203-0.53844     c0.08819-0.48089-0.00665-0.95491-0.00133-1.43181c0.0121-1.08371,0.34971-2.02575,1.29519-2.63561     c0.85331-0.55039,1.34367-0.30414,1.46796,0.68832c0.11624,0.92833,0.01258,1.83874-0.23886,2.73557     c-0.02772,0.0989-0.05587,0.19773-0.08671,0.29569c-0.54584,1.73448-0.23289,2.28086,1.37101,3.21525     c0.93111,0.54243,1.89828,0.48486,2.86338,0.5818c0.60337,0.0606,1.13545,0.23445,1.63259,0.54568     c0.91404,0.57223,1.42031,1.33894,1.20152,2.47959C55.62261,16.80612,55.95417,17.511,55.74269,18.27419z M44.95827,48.8836     c-0.61092-0.37762-1.00254-1.0468-1.67855-1.29605c-1.48277-0.5467-2.81388-1.5865-4.51667-1.44208     c-0.14802,0.01256-0.25431-0.07045-0.37907-0.12331c-1.78294-0.75539-3.93439-0.04363-4.92569,1.6215     c-0.08754,0.14706-0.17461,0.29575-0.27676,0.43256c-1.17876,1.5787-1.55675,3.46516-1.5935,5.32014     c-0.06485,3.27284,0.50978,6.47157,2.08265,9.41642c0.13959,0.26134,0.41364,0.60691,0.11829,0.83432     c-0.39373,0.30318-0.55354-0.21416-0.81094-0.3872c-0.05312-0.03571-0.12519-0.04324-0.18653-0.06312     c-0.9462,0.89314-2.04507,1.57581-3.1896,2.15685c-0.78491,0.39849-1.60593,0.25933-2.28429-0.37289     c-0.7714-0.71893-1.62965-1.32803-2.2983-2.17894c-0.67243-0.85573-1.59588-1.51388-1.12258-2.83279     c0.14619-0.40739-0.44934-0.98005-0.85678-0.96671c-0.47969,0.0157-0.83863,0.46411-0.76819,0.98816     c0.04564,0.33942,0.17104,0.64622,0.34953,0.9519c0.61219,1.0485,1.44647,1.89675,2.30898,2.73124     c0.96438,0.93304,1.86825,1.90717,1.97897,3.35802c0.04382,0.57422-0.13846,0.97228-0.6349,1.27546     c-1.33522,0.81541-2.75896,1.321-4.33836,1.28508c-0.35855-0.00815-0.66085,0.08971-0.98339,0.21852     c-0.404,0.16133-0.66096,0.43543-0.57702,0.84142c0.08292,0.40102,0.52076,0.46579,0.84295,0.43462     c0.64141-0.06207,1.29181-0.12956,1.89093-0.42122c0.85397-0.41574,1.75569-0.69907,2.58191-1.21425     c1.13332-0.70667,2.36976-0.18391,2.54379,1.01772c0.18419,1.27181,0.39908,2.5667-0.08226,3.84357     c-0.13007,0.34501-0.16346,0.73552-0.18769,1.10863c-0.02106,0.32452,0.11049,0.61777,0.45074,0.73127     c0.36602,0.12211,0.58205-0.10584,0.7447-0.38821c0.24347-0.42288,0.34057-0.86591,0.28715-1.36859     c-0.10119-0.95202-0.25487-1.8939-0.43669-2.832c-0.06719-0.34666-0.07264-0.66763,0.13528-0.9777     c0.55234-0.82372,1.10109-1.62317,2.02457-2.11817c1.2025-0.64454,2.35688-1.37893,3.53129-2.07581     c1.26873-0.75288,1.99012-1.81719,1.96035-3.34266c-0.02661-1.36332-0.03743-2.72512-0.12909-4.08784     c-0.13265-1.9717,1.08686-3.6429,2.99984-4.00191c1.03973-0.19515,2.07347-0.10439,2.95621,0.73448     c0.70039,0.66555,1.30119,1.3955,1.90119,2.13935c0.66708,0.82701,1.34217,1.67189,2.27083,2.20744     c1.12171,0.64688,2.31726,1.14999,3.51879,1.64676c1.04511,0.4321,2.13022,0.84299,2.8488,1.87556     c0.68582,0.98548,1.25331,1.99441,1.72226,3.10788c1.16927,2.77623,1.76191,5.6666,2.03263,8.64104     c0.046,0.50533-0.05982,0.99883-0.22926,1.49163c-0.42191,1.22689-0.90741,2.42654-1.3843,3.63178     c-0.24898,0.62925-0.58464,1.14106-1.0508,1.60011c-0.19355,0.19061-0.37722,0.39295-0.55011,0.60256     c-1.80052,2.18299-3.82847,4.01715-6.55476,5.05592c-1.93929,0.73891-3.93048,1.11631-5.942,1.50076     c-1.39018,0.2657-2.7937,0.13957-4.18821,0.26174c-2.2347,0.1958-4.45327-0.05752-6.57246-0.75705     c-2.61663-0.86372-4.93439-2.34109-7.12231-3.98739c-1.63375-1.22932-3.28255-2.44922-4.70804-3.94186     c-0.49122-0.51436-1.04499-0.96394-1.44922-1.56349c-1.01417-1.50423-2.50905-2.58541-3.58958-4.05481     c0.24038,1.14583,0.7507,2.18523,1.34524,3.13884c1.1175,1.79241,2.40053,3.48788,3.89194,4.98822     c2.13784,2.15062,4.05383,4.50928,6.40594,6.46545c1.79848,1.49573,3.62686,2.87665,5.76646,3.83894     c1.13191,0.50908,2.25019,0.78015,3.45619,0.29508c0.30875-0.12416,0.6475-0.23287,0.52998,0.35238     c-0.05007,0.24938,0.17002,0.22857,0.33603,0.243c1.8397,0.1598,3.64989-0.28164,5.4887-0.25506     c1.43341,0.02074,2.83608-0.33274,4.22418-0.70249c1.18574-0.31586,2.37886-0.60438,3.56391-0.92163     c1.01456-0.2716,1.8587-0.8381,2.81023-1.198c1.12204-0.42442,2.13869-1.0457,3.1209-1.73007     c1.28849-0.89774,2.45177-1.94769,3.63094-2.97607c2.13446-1.86154,3.84798-4.07766,5.17364-6.56618     c1.08439-2.03561,1.65399-4.24014,1.80034-6.55904c0.06271-0.99339,0.299-2.02883-0.08472-2.94457     c-0.65498-1.56299-1.17223-3.15524-1.68972-4.76602c-0.59812-1.86183-1.59841-3.59964-2.48315-5.36165     c-0.33883-0.6748-0.53355-1.39687-0.85946-2.07655c-0.59529-1.24149-1.44018-2.32288-2.09553-3.52215     c-0.42565-0.77892-0.85414-1.56363-1.36442-2.28719c-0.73006-1.03524-1.40087-2.10583-2.02377-3.20392     c-0.63949-1.12733-1.11214-2.34393-1.41775-3.5967c-0.33176-1.36005-0.52996-2.75421-0.75307-4.13885     c-0.17255-1.0708-0.56058-2.11289-0.38333-3.23355c0.14217-0.89881,0.13673-1.81173,0.28859-2.71803     c0.20662-1.23319,0.48845-2.37502,1.39192-3.31629c0.86065-0.89668,1.86623-1.32068,3.09882-1.27473     c0.97584,0.03638,1.68859,0.56775,2.24601,1.27174c0.70607,0.8917,1.48975,1.70323,2.35738,2.41871     c1.32847,1.0955,2.7858,1.84188,4.61214,1.35479c0.42805-0.11418,0.86106-0.20461,1.27795-0.36131     c1.66671-0.62656,3.21977-1.50095,4.84217-2.2248c0.50632-0.22591,1.00901-0.41729,1.55345-0.50692     c1.44616-0.23812,2.32822,0.28413,2.91593,1.62989c0.31094,0.71195,0.7062,1.39237,1.11651,2.05408     c0.36947,0.59585,0.72073,0.74119,1.07377,0.50326c0.44176-0.29774,0.42123-0.7242,0.27074-1.1883     c-0.19125-0.58995-0.40033-1.15642-0.8353-1.62574c-0.46471-0.5014-0.9081-1.02449-1.33468-1.55896     c-0.97016-1.21549-0.85371-1.63955,0.61258-2.04897c1.37975-0.38524,2.79327-0.65529,4.16009-1.07881     c0.78909-0.24453,1.66392-0.42576,2.18507-1.20063c0.12589-0.18726,0.40219-0.3249,0.23341-0.60914     c-0.1639-0.27603-0.40425-0.15224-0.63891-0.0962c-0.90628,0.21645-1.73006,0.61385-2.54906,1.05139     c-1.36641,0.72999-2.811,1.24733-4.3897,1.22814c-0.96859-0.01177-1.63419-0.57547-1.5594-1.51254     c0.0956-1.19799-0.3306-2.28688-0.47382-3.43037c-0.03512-0.28044-0.09013-0.57611-0.46404-0.54006     c-0.26474,0.02552-0.53058,0.56481-0.41654,0.83298c0.06422,0.15102,0.18282,0.29235,0.30906,0.40053     c0.20314,0.17406,0.26093,0.4094,0.28449,0.64104c0.10674,1.04989,0.22543,2.10036,0.27547,3.15369     c0.0481,1.01235-0.08926,1.12186-1.024,1.49408c-2.16606,0.86259-4.44634,1.3192-6.6942,1.88091     c-0.86641,0.21647-1.67348,0.08723-2.3467-0.76322c-0.95446-1.20574-1.82145-2.47235-2.73615-3.70359     c-0.71584-0.96356-0.35356-2.48183,0.65058-3.15576c0.48037-0.32241,1.02611-0.54654,1.51183-0.86201     c1.89479-1.23054,3.79118-2.43209,6.1573-2.5282c0.95754-0.03889,1.85038-0.40992,2.77081-0.64071     c0.73822-0.1851,1.45242-0.37609,2.09878-0.76592c0.41337-0.24929,0.85771-0.41015,1.30106-0.58062     c2.48306-0.95461,4.23853-2.68548,5.39863-5.05242c0.05348-0.1091-0.00597-0.18565-0.15055-0.26597     c-0.66775,0.5499-1.31255,1.14267-1.8054,1.89271c-0.15585,0.23721-0.38924,0.43771-0.68404,0.21217     c-0.2784-0.21298-0.19684-0.52256-0.0202-0.7333c0.23738-0.28317,0.54794-0.50458,0.82425-0.75562     c0.78651-0.71452,1.5733-1.42326,1.87263-2.5089c0.17213-0.62436,0.0861-1.09631-0.47612-1.51945     c-0.83506-0.6285-1.75247-0.96054-2.75166-1.26237c-3.11726-0.94171-6.13136-1.13424-9.03313,0.63702     c-1.19468,0.72923-2.33107,1.52446-3.21105,2.64425c-0.50497,0.64263-0.97617,1.34892-1.70171,1.75932     c-1.19788,0.67752-2.22647,1.56839-3.2694,2.4449c-0.18567,0.15602-0.35772,0.33765-0.59923,0.37796     c-1.9574,0.32666-3.71593,1.37052-5.70707,1.57476c-0.82732,0.08485-1.56381,0.45127-2.31239,0.77701     c-0.21885,0.09525-0.43511,0.2355-0.66361,0.26291c-1.19992,0.14393-2.31325,0.55713-3.43037,0.99192     c-2.04651,0.79656-3.92805,1.83071-5.6619,3.21025c-1.55672,1.2386-2.65195,2.77835-3.33661,4.56081     c-1.09961,2.86275-2.02206,5.78767-2.06105,8.91845c-0.02416,1.94176,0.21948,3.79124,1.12703,5.53997     c0.43508,0.83836,0.79424,1.66811,1.93055,1.69834c0.21482,0.00571,0.42543,0.20545,0.63618,0.31902     c0.27269,0.14694,0.55142,0.26548,0.86432,0.30963C43.4151,46.32677,44.15757,47.64161,44.95827,48.8836z M67.9212,51.6448     c-0.00568-0.00497-0.01136-0.00996-0.01704-0.01493c0.22491-0.25761,0.45832-0.50835,0.67338-0.77394     c1.23853-1.52943,1.63455-3.42564,2.2391-5.22635c0.13796-0.41089-0.20895-0.63942-0.61323-0.45108     c-0.35089,0.16346-0.59319,0.42016-0.73516,0.80739c-0.48135,1.31297-0.9949,2.61415-1.49862,3.91888     c-0.33986,0.88027-0.8047,1.66692-1.69785,2.09231c-0.55437,0.26402-0.93353,0.18034-1.33378-0.29516     c-0.76195-0.90524-1.24376-1.95778-1.506-3.10272c-0.08556-0.37352-0.1934-0.7256-0.38289-1.0526     c-0.13517-0.23327-0.25451-0.51875-0.59914-0.46828c-0.25097,0.03677-0.60833,0.71562-0.52761,0.98976     c0.04742,0.16107,0.12421,0.31798,0.21236,0.46169c0.23162,0.37764,0.44258,0.77544,0.72417,1.1132     c0.453,0.5434,0.72439,1.17871,0.86348,1.83871c0.26016,1.23449,0.29861,2.46492-0.80547,3.3889     c-0.28585,0.23919-0.60208,0.44684-0.92208,0.63953c-0.88254,0.53136-1.64509,0.1316-1.72272-0.89327     c-0.11449-1.51108,0.01715-2.99685,0.40876-4.46489c0.44092-1.65288,0.64651-3.35487,0.78078-5.04842     c0.12654-1.596-0.00184-3.1869-1.45238-4.32162c-0.85679-0.67025-1.3896-0.82648-2.33312-0.28196     c-2.75132,1.58788-4.15146,4.60203-2.53454,7.84374c0.80469,1.61328,1.78287,3.14151,2.71191,4.69061     c0.50457,0.84132,1.12844,1.61453,1.59332,2.47527c0.50001,0.92578,1.04365,1.74294,2.13356,2.01849     c0.13461,0.03403,0.256,0.08732,0.24485,0.26843c-0.04949,0.8045,0.37367,0.44427,0.67709,0.25492     c0.75063-0.46847,1.46679-0.99476,2.23248-1.43587c1.07707-0.62053,2.2522-0.90917,3.41187-0.32268     c1.10351,0.5581,2.31671,0.51564,3.46004,0.82866c0.37421,0.10246,0.80415-0.01128,0.92953-0.43681     c0.11529-0.39125-0.22364-0.6025-0.5219-0.79108c-0.7057-0.44619-1.47492-0.70627-2.30234-0.79334     c-0.74742-0.07869-1.50417-0.10023-2.24185-0.23114c-0.8132-0.14432-1.00815-0.49842-0.88007-1.3137     c0.05546-0.35302,0.22706-0.64203,0.45248-0.90502C67.33219,52.31246,67.62804,51.97977,67.9212,51.6448z M44.25413,15.64478     c1.12397-1.45545,3.43777-2.01145,5.10825-1.19079c0.84498,0.41511,1.68833,1.77424,1.46997,2.5027     c-0.15879,0.52975-0.42028,0.93494-0.13274,1.58315c0.29538,0.66589,0.13468,0.74151,0.81349,0.66347     c0.37315-0.04291,0.76838-0.03836,1.11191-0.16683c0.96717-0.36169,1.99219-0.70591,2.26397-1.89018     c0.2063-0.89894,0.32384-1.80853-0.35125-2.59722c-0.5422-0.63343-1.3023-0.78367-2.04929-0.72925     c-1.2705,0.09253-2.33661-0.3743-3.38781-0.97518c-1.21973-0.69723-1.71121-1.93715-1.28477-3.28815     c0.28837-0.9135,0.58682-1.8256,0.64753-2.79024c0.01508-0.2396-0.01839-0.52038-0.28418-0.60574     c-0.25338-0.08139-0.49061,0.09911-0.59826,0.29815c-0.28832,0.533-0.66865,1.03166-0.64017,1.69866     c0.02326,0.54477,0.02128,1.09726-0.0427,1.63767c-0.12101,1.02183-0.56337,1.31486-1.57736,1.16893     c-0.27548-0.03965-0.52873-0.12085-0.78972-0.20022c-0.9948-0.30254-1.84044-0.88715-2.69069-1.4485     c-0.58814-0.38829-1.22402-0.60431-1.89532-0.73877c-0.44024-0.08819-0.60158,0.10567-0.42765,0.50285     c0.23758,0.54254,0.62432,0.96086,1.12402,1.29406c0.76571,0.51057,1.65111,0.62513,2.51267,0.82146     c0.6877,0.1567,1.278,0.44872,1.70676,1.0366c0.57901,0.79389,0.48448,1.52895-0.31178,2.11028     c-0.38485,0.28098-0.79048,0.53331-1.18237,0.80486c-0.60071,0.41629-1.11446,0.91539-1.35788,1.62296     c-0.14489,0.42118-0.54462,0.90017,0.01384,1.27772c0.36211,0.2448,0.73075-0.01473,1.21516-0.68035     C43.62193,16.83901,43.77391,16.1791,44.25413,15.64478z M61.57142,49.27115c-0.12527,0.4454-0.21181,0.80678-0.32843,1.15818     c-0.41518,1.25094-0.42467,2.53587-0.31433,3.82625c0.04896,0.57253,0.38339,0.7395,0.91872,0.53451     c0.89921-0.34432,1.28199-1.03487,1.42049-1.95081c0.12402-0.82013-0.29787-1.46278-0.63773-2.10667     C62.37376,50.24688,62.27993,49.60608,61.57142,49.27115z" style="fill: url(#gradient-0); stroke: url(#gradient-5); paint-order: stroke;"/>
      <path d="M46.14668,27.91908c0.97048-1.08303,1.91506-2.11025,2.96956-3.03254c0.64707-0.56594,1.41129-0.94528,2.13689-1.3826     c2.02935-1.22309,4.27571-1.92543,6.49037-2.72258c2.07587-0.7472,4.26857-1.19554,6.20155-2.33106     c0.25751-0.15128,0.57692-0.1991,0.86989-0.28741c0.17697-0.05333,0.35051-0.02354,0.45522,0.13478     c0.13018,0.19681,0.07464,0.38976-0.07521,0.56056c-0.23587,0.26878-0.56213,0.47604-0.88081,0.48429     c-0.97279,0.02516-1.79092,0.53236-2.68886,0.78077c-1.70758,0.47239-3.38225,1.0589-5.0306,1.71655     c-0.3784,0.15096-0.81088,0.17083-1.18264,0.33314c-1.74792,0.76325-3.55365,1.43466-5.10747,2.56286     c-1.98264,1.43958-3.72153,3.15305-4.59937,5.49028c-0.84031,2.23731-1.35437,4.54555-1.12088,6.99925     c0.25047,2.63236,0.71449,5.20784,1.57095,7.70152c0.83216,2.42285,1.59043,4.89122,2.67442,7.20205     c1.18247,2.52084,2.34298,5.06783,4.00376,7.35921c1.53975,2.1244,2.99768,4.33697,4.08856,6.73343     c1.0013,2.19975,1.90784,4.45336,1.9694,6.944c0.01147,0.46381-0.15547,0.86407-0.18408,1.30154     c-0.00833,0.12752-0.0833,0.29073-0.25128,0.26596c-0.19807-0.02921-0.30237-0.22248-0.25001-0.3795     c0.23956-0.71913,0.04136-1.4219-0.02255-2.13304c-0.16179-1.7999-0.82071-3.45898-1.54469-5.07363     c-1.11861-2.49483-2.65458-4.76559-4.07759-7.0928c-0.58459-0.95605-1.41682-1.74197-1.90747-2.77924     c-0.80155-1.69453-1.72268-3.33413-2.48242-5.04612c-0.40897-0.92156-0.60423-1.93684-0.9896-2.88336     c-0.97794-2.40197-1.91477-4.8166-2.51639-7.35326c-0.52316-2.20575-0.62184-4.45391-0.8145-6.6931     c-0.08287-0.96309,0.26926-1.88107,0.48179-2.81131c0.30497-1.33481,0.68489-2.63808,1.33729-3.85177     C45.81697,28.36236,45.95343,28.08967,46.14668,27.91908z" style="fill: url(#gradient-1); stroke: url(#gradient-6); paint-order: stroke;"/>
      <path d="M57.03628,64.66252c-0.59979-0.4006-0.90916-1.05047-1.24217-1.6526c-1.18795-2.148-2.42591-4.27533-3.47371-6.49144     c-0.74076-1.56674-1.38626-3.19609-1.86792-4.87511c-0.38331-1.3362-0.89903-2.6143-1.45168-3.89422     c-0.52845-1.22384-0.95662-2.52359-1.20778-3.86132c-0.39125-2.08388-0.76603-4.16741-0.81775-6.29453     c-0.04233-1.74133,0.12611-3.47959,0.38634-5.18589c0.23044-1.51096,0.9347-2.91638,1.75168-4.22499     c0.19076-0.30558,0.53357-0.51961,0.81711-0.76334c1.63267-1.40348,3.31758-2.73612,5.21236-3.77755     c0.84235-0.46298,1.75299-0.77995,2.65947-1.06648c1.17064-0.37002,2.22586-1.06645,3.47363-1.21048     c0.12936-0.01493,0.25551-0.09615,0.37278-0.16443c0.08689-0.05057,0.14803-0.17133,0.23588-0.19033     c0.90388-0.19554,1.81004-0.38119,2.71875-0.55266c0.0665-0.01256,0.19836,0.09168,0.22626,0.1684     c0.02816,0.07745-0.00453,0.22045-0.06477,0.278c-0.14635,0.13986-0.32081,0.23097-0.53545,0.27506     c-2.54965,0.52346-4.97659,1.45204-7.43123,2.2853c-1.30523,0.44309-2.44365,1.22397-3.56625,1.99535     c-0.89743,0.61663-1.71512,1.35277-2.54615,2.0617c-1.08791,0.92799-1.8179,2.07352-2.27085,3.45275     c-0.90451,2.75415-0.91487,5.56194-0.76806,8.4059c0.10668,2.06653,0.73762,4.02625,1.08279,6.04281     c0.09016,0.52672,0.53074,0.8769,0.68496,1.36623c0.49219,1.56148,1.08865,3.08543,1.54263,4.66388     c0.52779,1.83502,1.28422,3.60227,2.18237,5.29565c1.29591,2.44334,2.61561,4.87408,3.91906,7.31343     c0.07592,0.14209,0.0975,0.3132,0.14437,0.47081C57.1474,64.5758,57.09184,64.61916,57.03628,64.66252z" style="fill: url(#gradient-2); stroke: url(#gradient-7); paint-order: stroke;"/>
      <path d="M55.82127,58.17933c-0.43723-0.14888-0.665-0.45152-0.82328-0.79299c-1.03123-2.22448-2.24226-4.36824-3.00245-6.71526     c-0.13581-0.4193-0.34149-0.82011-0.54939-1.21111c-0.54605-1.02689-1.03946-2.06469-1.32394-3.20768     c-0.45944-1.84605-1.09293-3.64231-1.20828-5.57369c-0.10998-1.84106-0.17627-3.67529,0.00177-5.51096     c0.03206-0.33075,0.18614-0.65339,0.30669-0.97113c0.31311-0.8254,0.66619-1.62285,0.85851-2.5056     c0.20983-0.96306,0.81413-1.83468,1.42721-2.58057c0.66374-0.80756,1.30364-1.65133,2.07298-2.38825     c1.12747-1.07999,2.43368-1.74535,3.92341-2.10571c0.66391-0.16058,1.33096-0.30903,1.99952-0.449     c0.17339-0.0363,0.36448,0.01602,0.41574,0.20593c0.0488,0.18081-0.09859,0.31251-0.21939,0.43431     c-0.16119,0.16253-0.37989,0.11662-0.57401,0.16552c-1.31973,0.3324-2.66257,0.56993-3.87113,1.27842     c-0.57341,0.33614-1.09591,0.74129-1.51474,1.20477c-1.346,1.48946-2.75463,2.95414-3.18735,5.04367     c-0.12271,0.59263-0.43137,1.1474-0.6605,1.71721c-0.57583,1.43194-0.56892,2.93563-0.5153,4.43641     c0.03168,0.88648,0.17843,1.76829,0.22992,2.65472c0.11246,1.93583,0.86766,3.71202,1.34873,5.55577     c0.18062,0.69233,0.46397,1.34447,0.83781,1.96651c0.70789,1.17788,1.01873,2.53041,1.59298,3.77451     c0.72911,1.57961,1.48528,3.14631,2.21397,4.72585C55.70921,57.5661,55.91959,57.783,55.82127,58.17933z" style="fill: url(#gradient-3); stroke: url(#gradient-8); paint-order: stroke;"/>
      <path d="M76.13988,16.69455c-0.75068,0.63771-1.49034,1.28908-2.25723,1.90665c-0.31939,0.2572-0.7007,0.25155-1.04802,0.00715     c-0.35107-0.24704-0.60558-0.53728-0.51469-1.02363c0.11201-0.59942,0.37233-1.08823,0.89242-1.43019     c0.66882-0.43973,1.4063-0.67322,2.19246-0.78728c0.39086-0.05669,0.79765-0.0848,1.00533,0.29621     C76.61655,16.04214,76.39256,16.38491,76.13988,16.69455z" style="fill: url(#gradient-4); stroke: url(#gradient-9); paint-order: stroke;"/>
    </g>
  </g>
</svg>