<svg height="512pt" viewBox="-46 0 512 512" width="512pt" xmlns="http://www.w3.org/2000/svg"><path d="m120.160156 222.871094c3.050782-3.046875 4.730469-7.101563 4.730469-11.414063v-7.214843h.378906c5.628907 0 10.207031-4.582032 10.207031-10.210938v-15.757812c0-5.628907-4.578124-10.207032-10.207031-10.207032h-15.761719c-5.628906 0-10.207031 4.578125-10.207031 10.207032v15.757812c0 5.628906 4.578125 10.210938 10.207031 10.210938h.382813v7.214843c0 .304688-.121094.589844-.335937.808594l-16.070313 16.066406v-62.398437h10.320313c5.820312 0 9.425781-6.359375 6.4375-11.355469l-17.820313-29.765625c-2.898437-4.84375-9.953125-4.871094-12.871094 0l-17.820312 29.765625c-2.988281 4.992187.617187 11.355469 6.433593 11.355469h10.324219v83.578125l-16.070312-16.070313c-.214844-.214844-.335938-.503906-.335938-.808594v-8.84375c6.242188-2.855468 10.589844-9.160156 10.589844-16.460937 0-9.972656-8.113281-18.085937-18.089844-18.085937-9.972656 0-18.085937 8.113281-18.085937 18.085937 0 7.300781 4.347656 13.605469 10.585937 16.460937v8.84375c0 4.3125 1.679688 8.367188 4.730469 11.414063l26.675781 26.675781v11.019532c-8.101562 3.046874-13.882812 10.871093-13.882812 20.023437 0 11.789063 9.59375 21.378906 21.382812 21.378906 11.789063 0 21.378907-9.589843 21.378907-21.378906 0-9.152344-5.777344-16.976563-13.878907-20.023437v-32.195313zm-5.859375-39.808594h6.179688v6.179688h-6.179688zm-28.316406-39.792969 4.589844 7.664063h-9.179688zm-31.402344 60.972657c1.703125 0 3.089844 1.382812 3.089844 3.085937s-1.386719 3.089844-3.089844 3.089844-3.089843-1.386719-3.089843-3.089844 1.386718-3.085937 3.089843-3.085937zm31.402344 103.90625c-3.515625 0-6.378906-2.863282-6.378906-6.378907 0-3.519531 2.863281-6.382812 6.378906-6.382812 3.519531 0 6.382813 2.863281 6.382813 6.382812 0 3.515625-2.863282 6.378907-6.382813 6.378907zm0 0"/><path d="m69.605469 24.835938h-20.160157c-6.359374 0-11.53125 5.175781-11.53125 11.53125v20.164062c0 6.355469 5.171876 11.53125 11.53125 11.53125h20.160157c6.359375 0 11.53125-5.175781 11.53125-11.53125v-20.164062c0-6.355469-5.171875-11.53125-11.53125-11.53125zm-3.46875 28.226562h-13.222657v-13.226562h13.222657zm0 0"/><path d="m122.527344 68.0625c6.359375 0 11.53125-5.175781 11.53125-11.53125v-20.164062c0-6.355469-5.171875-11.527344-11.53125-11.527344h-20.160156c-6.359376 0-11.53125 5.171875-11.53125 11.527344v20.164062c0 6.355469 5.171874 11.53125 11.53125 11.53125zm-16.691406-28.226562h13.222656v13.226562h-13.222656zm0 0"/><path d="m315.265625 0c-57.753906 0-104.742187 46.988281-104.742187 104.742188v302.515624c0 26.527344-21.582032 48.109376-48.109376 48.109376-26.527343 0-48.109374-21.582032-48.109374-48.109376v-2.300781c7.070312-.953125 12.542968-7.03125 12.542968-14.359375v-46.132812c25.285156-2.40625 45.125-23.761719 45.125-49.664063v-128.835937c0-4.140625-3.355468-7.5-7.5-7.5-4.140625 0-7.5 3.359375-7.5 7.5v128.835937c0 19.238281-15.652344 34.890625-34.890625 34.890625h-72.191406c-19.238281 0-34.890625-15.652344-34.890625-34.890625v-180.175781h141.972656v16.339844c0 4.140625 3.359375 7.5 7.5 7.5 4.144532 0 7.5-3.359375 7.5-7.5v-19.457032c0-4.964843-3.058594-9.226562-7.386718-11v-88.625c0-6.554687-5.332032-11.882812-11.882813-11.882812h-133.433594c-6.550781 0-11.882812 5.328125-11.882812 11.882812v45.75c0 4.140626 3.359375 7.5 7.5 7.5 4.144531 0 7.5-3.359374 7.5-7.5v-42.632812h127.199219v84.625h-127.199219v-6.992188c0-4.144531-3.355469-7.5-7.5-7.5-4.140625 0-7.5 3.355469-7.5 7.5v7.875c-4.328125 1.777344-7.386719 6.035157-7.386719 11v183.292969c0 25.902344 19.84375 47.257813 45.125 49.664063v46.128906c0 7.332031 5.472656 13.410156 12.546875 14.363281v2.300781c0 57.753907 46.984375 104.742188 104.742187 104.742188 57.753907 0 104.738282-46.988281 104.738282-104.742188v-39.867187c0-4.144531-3.355469-7.5-7.5-7.5-4.140625 0-7.5 3.355469-7.5 7.5v39.867187c0 49.484376-40.257813 89.742188-89.742188 89.742188-49.480468 0-89.738281-40.257812-89.738281-89.742188v-2.167968h26.628906v2.167968c0 34.800782 28.3125 63.109376 63.113281 63.109376 34.796876 0 63.109376-28.308594 63.109376-63.109376v-302.515624c0-49.484376 40.257812-89.742188 89.742187-89.742188s89.742187 40.257812 89.742187 89.742188v392.257812h-26.632812v-392.257812c0-34.800782-28.3125-63.109376-63.109375-63.109376-34.800781 0-63.113281 28.308594-63.113281 63.109376v227.648437c0 4.140625 3.359375 7.5 7.5 7.5 4.144531 0 7.5-3.359375 7.5-7.5v-227.648437c0-26.527344 21.585937-48.109376 48.113281-48.109376s48.109375 21.582032 48.109375 48.109376v394.183593c0 7.210938 5.863281 13.074219 13.074219 13.074219h30.484375c7.207031 0 13.074218-5.863281 13.074218-13.074219v-394.183593c0-57.753907-46.988281-104.742188-104.742187-104.742188zm-255.140625 390.089844v-4.550782h10.730469c4.140625 0 7.5-3.359374 7.5-7.5 0-4.144531-3.359375-7.5-7.5-7.5h-10.730469v-6.296874h10.730469c4.140625 0 7.5-3.359376 7.5-7.5 0-4.144532-3.359375-7.5-7.5-7.5h-10.730469v-4.550782h51.722656v4.550782h-10.730468c-4.144532 0-7.5 3.355468-7.5 7.5 0 4.140624 3.355468 7.5 7.5 7.5h10.730468v6.296874h-10.730468c-4.144532 0-7.5 3.355469-7.5 7.5 0 4.140626 3.355468 7.5 7.5 7.5h10.730468v4.550782zm0 0"/><path d="m69.015625 86.671875c0 4.140625 3.355469 7.5 7.5 7.5 4.140625 0 7.5-3.359375 7.5-7.5 0-1.085937.882813-1.972656 1.972656-1.972656 1.085938 0 1.96875.882812 1.96875 1.972656 0 4.140625 3.359375 7.5 7.5 7.5 4.144531 0 7.5-3.359375 7.5-7.5 0-9.359375-7.613281-16.972656-16.96875-16.972656-9.359375 0-16.972656 7.613281-16.972656 16.972656zm0 0"/></svg>