<?xml version="1.0"?>
<svg xmlns="http://www.w3.org/2000/svg" viewBox="0 0 64 64" width="512" height="512"><g id="outline"><path d="M20,25.122V29a1.792,1.792,0,0,0,.105.447L22,33.236V62h6V33.236L29.9,29.447A1.792,1.792,0,0,0,30,29V25.122l.97-3.879A1.817,1.817,0,0,0,31,21V11a1,1,0,0,0-1-1H29V4H26V3a1,1,0,0,0-2,0V4H21v6H20a1,1,0,0,0-1,1V21a1.817,1.817,0,0,0,.03.243ZM26,60H24V38h2Zm0-24H24V34h2Zm.382-4H23.618l-1-2h4.764ZM28,28H22V26h6Zm.219-4H21.781l-.5-2h7.438ZM23,6h4v4H23Zm-2,6h8v8H21Z"/><rect x="23" y="16" width="4" height="2"/><path d="M34,25.122V29a1.792,1.792,0,0,0,.1.447L36,33.236V62h6V33.236l1.9-3.789A1.792,1.792,0,0,0,44,29V25.122l.97-3.879A1.817,1.817,0,0,0,45,21V11a1,1,0,0,0-1-1H43V4H40V3a1,1,0,0,0-2,0V4H35v6H34a1,1,0,0,0-1,1V21a1.817,1.817,0,0,0,.03.243ZM40,60H38V38h2Zm0-24H38V34h2Zm.382-4H37.618l-1-2h4.764ZM42,28H36V26h6Zm.219-4H35.781l-.5-2h7.438ZM37,6h4v4H37Zm-2,6h8v8H35Z"/><rect x="37" y="16" width="4" height="2"/></g></svg>
